<?xml version="1.0" encoding="utf-8"?>
<!-- Generator: Adobe Illustrator 25.4.1, SVG Export Plug-In . SVG Version: 6.00 Build 0)  -->
<svg version="1.1" id="LOGO" xmlns="http://www.w3.org/2000/svg" xmlns:xlink="http://www.w3.org/1999/xlink" x="0px" y="0px"
	 viewBox="0 0 530 170" style="enable-background:new 0 0 530 170;" xml:space="preserve">
<style type="text/css">
	.st0{fill:#1B4772;}
	.st1{fill:#FFFFFF;}
</style>
<g>
	<path id="Text" class="st0" d="M237.21,70.09l-9.6,22.16l-9.6-22.16h-6.73V100h6.04V81.19l8.1,18.81h4.33l8.14-18.9V100h6V70.09
		H237.21z M276.34,100L265.8,70h-7.16l-10.59,30h6.39l1.93-5.61h11.66l1.93,5.61H276.34z M262.2,77.29l4.28,12.47h-8.53L262.2,77.29
		z M286.84,74.71V100h6V74.71h8.1v-4.63h-22.16v4.63H286.84z M313.58,88.09l7.16,11.91h7.16l-7.63-12.3c2.46-0.6,4.26-1.71,5.4-3.34
		c1.14-1.63,1.71-3.39,1.71-5.27c0-2.54-0.94-4.68-2.81-6.41c-1.87-1.73-4.54-2.59-7.99-2.59h-11.01V100h6.04V88.09H313.58z
		 M316.58,74.71c1.51,0,2.67,0.39,3.47,1.18c0.8,0.79,1.2,1.85,1.2,3.19c0,1.34-0.4,2.41-1.2,3.19c-0.8,0.79-1.96,1.18-3.47,1.18
		h-4.97v-8.74H316.58z M339.42,100V70.09h-6.04V100H339.42z M363.55,70.09l-5.79,9.86l-6.17-9.86h-6.82l9.39,14.96L344.78,100h6.82
		l5.74-9.86l6.17,9.86h6.82l-9.34-14.96l9.34-14.96H363.55z M414.46,70.09l-9.6,22.16l-9.6-22.16h-6.73V100h6.04V81.19l8.1,18.81
		h4.33l8.14-18.9V100h6V70.09H414.46z M427.58,70v30h17.27v-4.63h-11.23V87.1h9.94v-4.63h-9.94v-7.84h11.23V70H427.58z
		 M451.02,70.09V100h10.16c4.8,0,8.68-1.36,11.64-4.07c2.96-2.71,4.44-6.33,4.44-10.84s-1.48-8.14-4.44-10.89
		c-2.96-2.74-6.84-4.11-11.64-4.11H451.02z M457.06,74.76h4.11c3.14,0,5.59,0.93,7.33,2.78c1.74,1.86,2.61,4.37,2.61,7.54
		c0,3.17-0.87,5.69-2.61,7.54c-1.74,1.86-4.19,2.79-7.33,2.79h-4.11V74.76z M488.05,100V70.09h-6.04V100H488.05z M520.49,100
		l-10.54-30h-7.16l-10.59,30h6.39l1.93-5.61h11.66l1.93,5.61H520.49z M506.35,77.29l4.28,12.47h-8.53L506.35,77.29z"/>
	<rect id="Line" x="183.89" y="10" class="st0" width="4" height="150"/>
	<g id="Icon">
		<circle id="bg" class="st0" cx="85.5" cy="85" r="75"/>
		<path id="text" class="st1" d="M62.84,107.98c0.82,1.11,0.58,2.68-0.53,3.5c-0.45,0.33-0.96,0.49-1.48,0.49
			c-0.77,0-1.53-0.35-2.02-1.02L37.55,82.04v27.43c0,1.38-1.12,2.5-2.5,2.5s-2.5-1.12-2.5-2.5V74.42c0-1.08,0.69-2.04,1.72-2.38
			c1.03-0.34,2.15,0.02,2.79,0.89L62.84,107.98z M81.74,61.91c-1.03-0.34-2.15,0.02-2.79,0.89L58.52,90.58L37.53,62.04
			c-0.82-1.11-2.38-1.35-3.5-0.53c-1.11,0.82-1.35,2.38-0.53,3.5l34.23,46.54c0.49,0.67,1.25,1.02,2.02,1.02
			c0.51,0,1.03-0.16,1.48-0.49c1.11-0.82,1.35-2.38,0.53-3.5L61.62,94.8l16.84-22.9v87.77c1.62,0.15,3.32,0.26,5,0.3V64.28
			C83.46,63.2,82.77,62.24,81.74,61.91z M92.59,72.94c-0.64-0.87-1.77-1.23-2.79-0.89c-1.03,0.34-1.72,1.29-1.72,2.38v63.79
			c0,1.38,1.12,2.5,2.5,2.5s2.5-1.12,2.5-2.5V82.04l21.26,28.91c0.82,1.11,2.38,1.35,3.5,0.53c1.11-0.82,1.35-2.38,0.53-3.5
			L92.59,72.94z M137.27,61.91c-1.03-0.34-2.15,0.02-2.79,0.89l-20.43,27.78L93.05,62.04c-0.82-1.11-2.38-1.35-3.5-0.53
			c-1.11,0.82-1.35,2.38-0.53,3.5l34.23,46.54c0.49,0.67,1.25,1.02,2.02,1.02c0.51,0,1.03-0.16,1.48-0.49
			c1.11-0.82,1.35-2.38,0.53-3.5L117.15,94.8l16.84-22.9v38.16c0,1.38,1.12,2.5,2.5,2.5s2.5-1.12,2.5-2.5V64.28
			C138.99,63.2,138.29,62.24,137.27,61.91z"/>
	</g>
</g>
</svg>
