<?xml version="1.0" encoding="utf-8"?>
<!-- Generator: Adobe Illustrator 25.4.1, SVG Export Plug-In . SVG Version: 6.00 Build 0)  -->
<svg version="1.1" id="LOGO" xmlns="http://www.w3.org/2000/svg" xmlns:xlink="http://www.w3.org/1999/xlink" x="0px" y="0px"
	 viewBox="0 0 154.5 155" style="enable-background:new 0 0 154.5 155;" xml:space="preserve">
<style type="text/css">
	.st0{display:none;fill:#1B4772;}
	.st1{fill:#1B4772;}
	.st2{fill:#FFFFFF;}
</style>
<g>
	<path id="Text" class="st0" d="M229.71,62.09l-9.6,22.16l-9.6-22.16h-6.73V92h6.04V73.19l8.1,18.81h4.33l8.14-18.9V92h6V62.09
		H229.71z M268.84,92L258.3,62h-7.16l-10.59,30h6.39l1.93-5.61h11.66l1.93,5.61H268.84z M254.7,69.29l4.28,12.47h-8.53L254.7,69.29z
		 M279.34,66.71V92h6V66.71h8.1v-4.63h-22.16v4.63H279.34z M306.08,80.09L313.24,92h7.16l-7.63-12.3c2.46-0.6,4.26-1.71,5.4-3.34
		c1.14-1.63,1.71-3.39,1.71-5.27c0-2.54-0.94-4.68-2.81-6.41c-1.87-1.73-4.54-2.59-7.99-2.59h-11.01V92h6.04V80.09H306.08z
		 M309.08,66.71c1.51,0,2.67,0.39,3.47,1.18c0.8,0.79,1.2,1.85,1.2,3.19c0,1.34-0.4,2.41-1.2,3.19c-0.8,0.79-1.96,1.18-3.47,1.18
		h-4.97v-8.74H309.08z M331.92,92V62.09h-6.04V92H331.92z M356.05,62.09l-5.79,9.86l-6.17-9.86h-6.82l9.39,14.96L337.28,92h6.82
		l5.74-9.86l6.17,9.86h6.82l-9.34-14.96l9.34-14.96H356.05z M406.96,62.09l-9.6,22.16l-9.6-22.16h-6.73V92h6.04V73.19l8.1,18.81
		h4.33l8.14-18.9V92h6V62.09H406.96z M420.08,62v30h17.27v-4.63h-11.23V79.1h9.94v-4.63h-9.94v-7.84h11.23V62H420.08z M443.52,62.09
		V92h10.16c4.8,0,8.68-1.36,11.64-4.07c2.96-2.71,4.44-6.33,4.44-10.84s-1.48-8.14-4.44-10.89c-2.96-2.74-6.84-4.11-11.64-4.11
		H443.52z M449.56,66.76h4.11c3.14,0,5.59,0.93,7.33,2.78c1.74,1.86,2.61,4.37,2.61,7.54c0,3.17-0.87,5.69-2.61,7.54
		c-1.74,1.86-4.19,2.79-7.33,2.79h-4.11V66.76z M480.55,92V62.09h-6.04V92H480.55z M512.99,92l-10.54-30h-7.16l-10.59,30h6.39
		l1.93-5.61h11.66L506.6,92H512.99z M498.85,69.29l4.28,12.47h-8.53L498.85,69.29z"/>
	<rect id="Line" x="176.39" y="2" class="st0" width="4" height="150"/>
	<g id="Icon">
		<circle id="bg" class="st1" cx="78" cy="77" r="75"/>
		<path id="text" class="st2" d="M55.34,99.98c0.82,1.11,0.58,2.68-0.53,3.5c-0.45,0.33-0.96,0.49-1.48,0.49
			c-0.77,0-1.53-0.35-2.02-1.02L30.05,74.04v27.43c0,1.38-1.12,2.5-2.5,2.5s-2.5-1.12-2.5-2.5V66.42c0-1.08,0.69-2.04,1.72-2.38
			c1.03-0.34,2.15,0.02,2.79,0.89L55.34,99.98z M74.24,53.91c-1.03-0.34-2.15,0.02-2.79,0.89L51.02,82.58L30.03,54.04
			c-0.82-1.11-2.38-1.35-3.5-0.53c-1.11,0.82-1.35,2.38-0.53,3.5l34.23,46.54c0.49,0.67,1.25,1.02,2.02,1.02
			c0.51,0,1.03-0.16,1.48-0.49c1.11-0.82,1.35-2.38,0.53-3.5L54.12,86.8l16.84-22.9v87.77c1.62,0.15,3.32,0.26,5,0.3V56.28
			C75.96,55.2,75.27,54.24,74.24,53.91z M85.09,64.94c-0.64-0.87-1.77-1.23-2.79-0.89c-1.03,0.34-1.72,1.29-1.72,2.38v63.79
			c0,1.38,1.12,2.5,2.5,2.5s2.5-1.12,2.5-2.5V74.04l21.26,28.91c0.82,1.11,2.38,1.35,3.5,0.53c1.11-0.82,1.35-2.38,0.53-3.5
			L85.09,64.94z M129.77,53.91c-1.03-0.34-2.15,0.02-2.79,0.89l-20.43,27.78L85.55,54.04c-0.82-1.11-2.38-1.35-3.5-0.53
			c-1.11,0.82-1.35,2.38-0.53,3.5l34.23,46.54c0.49,0.67,1.25,1.02,2.02,1.02c0.51,0,1.03-0.16,1.48-0.49
			c1.11-0.82,1.35-2.38,0.53-3.5L109.65,86.8l16.84-22.9v38.16c0,1.38,1.12,2.5,2.5,2.5s2.5-1.12,2.5-2.5V56.28
			C131.49,55.2,130.79,54.24,129.77,53.91z"/>
	</g>
</g>
</svg>
